<?xml version="1.0" encoding="UTF-8" standalone="no"?>
<!--
   Licensed to the Apache Software Foundation (ASF) under one or more
  contributor license agreements.  See the NOTICE file distributed with
  this work for additional information regarding copyright ownership.
  The ASF licenses this file to You under the Apache License, Version 2.0
  (the "License"); you may not use this file except in compliance with
  the License.  You may obtain a copy of the License at

       https://www.apache.org/licenses/LICENSE-2.0

   Unless required by applicable law or agreed to in writing, software
   distributed under the License is distributed on an "AS IS" BASIS,
   WITHOUT WARRANTIES OR CONDITIONS OF ANY KIND, either express or implied.
   See the License for the specific language governing permissions and
   limitations under the License.
  -->
<svg height="375" version="1.1" width="750" xmlns="http://www.w3.org/2000/svg">
    <defs>
        <clipPath id="geometry-area">
            <rect height="365.0" width="365.0" x="5.0" y="5.0"/>
        </clipPath>
    </defs>
    <style>
text {
   font-size: 14px;
}
.node-name {
    text-anchor: middle;
    font-family: "Courier New", Courier, monospace;
}
.geometry-border {
    fill: none;
    stroke: gray;
    stroke-width: 1;
}
.arrow {
    fill: none;
    stroke: blue;
    stroke-width: 1;
}
.cut {
    fill: none;
    stroke: blue;
    stroke-width: 1;
    stroke-dasharray: 5,3;
}
.region-boundary {
    stroke: orange;
    stroke-width: 2;
}
.inside {
    fill: #aaa;
    opacity: 0.2;
}
.tree-path {
    fill: none;
    stroke: gray;
    stroke-width: 1;
}
.inside-node {
    font-weight: bold;
}
</style>
    <g class="geometry" clip-path="url(#geometry-area)">
        <g class="paths">
            <path class="cut" d="M5.0 187.5 L370.0 187.5"/>
            <path class="arrow" d="M363.5278640450004 192.2022820183398 L370.0 187.5 L363.5278640450004 182.7977179816602"/>
            <path class="cut" d="M278.75 187.5 L157.08333333333334 5.0"/>
            <path class="arrow" d="M164.58596355498713 7.776785868072497 L157.08333333333334 5.0 L156.7608932801488 12.993499384631386"/>
            <path class="region-boundary" d="M278.75 187.5 L233.125 119.0625"/>
            <path class="cut" d="M233.125 119.0625 L5.0 119.0625"/>
            <path class="arrow" d="M11.47213595499958 114.36021798166021 L5.0 119.0625 L11.47213595499958 123.76478201833979"/>
            <path class="region-boundary" d="M233.125 119.0625 L141.875 119.0625"/>
            <path class="cut" d="M141.875 119.0625 L96.25 187.5"/>
            <path class="arrow" d="M95.92755994681546 179.50650061536862 L96.25 187.5 L103.75263022165379 184.7232141319275"/>
            <path class="region-boundary" d="M141.875 119.0625 L96.25 187.5"/>
            <path class="inside" d="M96.25 187.5 L278.75 187.5 L233.125 119.0625 L141.875 119.0625 L96.25 187.5"/>
            <path class="cut" d="M96.25 187.5 L217.91666666666666 370.0"/>
            <path class="arrow" d="M210.41403644501287 367.2232141319275 L217.91666666666666 370.0 L218.2391067198512 362.0065006153686"/>
            <path class="region-boundary" d="M96.25 187.5 L141.875 255.9375"/>
            <path class="cut" d="M141.875 255.9375 L370.0 255.9375"/>
            <path class="arrow" d="M363.5278640450004 260.63978201833976 L370.0 255.9375 L363.5278640450004 251.2352179816602"/>
            <path class="region-boundary" d="M141.875 255.9375 L233.125 255.9375"/>
            <path class="cut" d="M233.125 255.9375 L278.75 187.5"/>
            <path class="arrow" d="M279.07244005318455 195.49349938463138 L278.75 187.5 L271.2473697783462 190.2767858680725"/>
            <path class="region-boundary" d="M233.125 255.9375 L278.75 187.5"/>
            <path class="inside" d="M96.25 187.5 L141.875 255.9375 L233.125 255.9375 L278.75 187.5 L96.25 187.5"/>
        </g>
        <g class="labels">
            <text class="node-name" dominant-baseline="middle" x="187.5" y="187.5">a</text>
            <text class="node-name" dominant-baseline="middle" x="217.91666666666669" y="96.25">b</text>
            <text class="node-name" dominant-baseline="middle" x="119.0625" y="119.0625">d</text>
            <text class="node-name" dominant-baseline="middle" x="119.0625" y="153.28125">h</text>
            <text class="node-name" dominant-baseline="middle" x="187.5" y="157.08333333333334">l</text>
            <text class="node-name" dominant-baseline="middle" x="62.79166666666666" y="151.0">m</text>
            <text class="node-name" dominant-baseline="middle" x="101.31944444444446" y="65.83333333333334">i</text>
            <text class="node-name" dominant-baseline="middle" x="289.90277777777777" y="84.08333333333331">e</text>
            <text class="node-name" dominant-baseline="middle" x="157.08333333333331" y="278.75">c</text>
            <text class="node-name" dominant-baseline="middle" x="255.9375" y="255.9375">f</text>
            <text class="node-name" dominant-baseline="middle" x="255.9375" y="221.71875">j</text>
            <text class="node-name" dominant-baseline="middle" x="187.5" y="217.91666666666666">n</text>
            <text class="node-name" dominant-baseline="middle" x="312.20833333333337" y="224.0">o</text>
            <text class="node-name" dominant-baseline="middle" x="273.68055555555554" y="309.16666666666663">k</text>
            <text class="node-name" dominant-baseline="middle" x="85.09722222222221" y="290.9166666666667">g</text>
        </g>
    </g>
    <rect class="geometry-border" height="365.0" width="365.0" x="5.0" y="5.0"/>
    <g class="tree" transform="translate(380.0 5.0)">
        <g class="node-a">
            <text class="node-name" dominant-baseline="middle" x="182.5" y="92.5">a</text>
        </g>
        <g class="node-b">
            <text class="node-name" dominant-baseline="middle" x="91.25" y="137.5">b</text>
            <path class="tree-path" d="M100.21870870577568 133.07707515879554 L173.5312912942243 96.92292484120445"/>
        </g>
        <g class="node-d">
            <text class="node-name" dominant-baseline="middle" x="45.625" y="182.5">d</text>
            <path class="tree-path" d="M52.744664484531626 175.4778651659414 L84.13033551546837 144.5221348340586"/>
        </g>
        <g class="node-h">
            <text class="node-name" dominant-baseline="middle" x="22.8125" y="227.5">h</text>
            <path class="tree-path" d="M27.33411931646686 218.58064134833936 L41.10338068353314 191.41935865166064"/>
        </g>
        <g class="node-l inside-node">
            <text class="node-name" dominant-baseline="middle" x="11.40625" y="272.5">l</text>
            <path class="tree-path" d="M13.863271274196281 262.80654620591054 L20.35547872580372 237.19345379408944"/>
        </g>
        <g class="node-m outside-node">
            <text class="node-name" dominant-baseline="middle" x="34.21875" y="272.5">m</text>
            <path class="tree-path" d="M31.76172872580372 262.80654620591054 L25.26952127419628 237.19345379408944"/>
        </g>
        <g class="node-i outside-node">
            <text class="node-name" dominant-baseline="middle" x="68.4375" y="227.5">i</text>
            <path class="tree-path" d="M63.91588068353314 218.58064134833936 L50.14661931646686 191.41935865166064"/>
        </g>
        <g class="node-e outside-node">
            <text class="node-name" dominant-baseline="middle" x="136.875" y="182.5">e</text>
            <path class="tree-path" d="M129.75533551546837 175.4778651659414 L98.36966448453163 144.5221348340586"/>
        </g>
        <g class="node-c">
            <text class="node-name" dominant-baseline="middle" x="273.75" y="137.5">c</text>
            <path class="tree-path" d="M264.78129129422433 133.07707515879554 L191.4687087057757 96.92292484120445"/>
        </g>
        <g class="node-f">
            <text class="node-name" dominant-baseline="middle" x="228.125" y="182.5">f</text>
            <path class="tree-path" d="M235.24466448453163 175.4778651659414 L266.6303355154684 144.5221348340586"/>
        </g>
        <g class="node-j">
            <text class="node-name" dominant-baseline="middle" x="205.3125" y="227.5">j</text>
            <path class="tree-path" d="M209.83411931646685 218.58064134833936 L223.60338068353315 191.41935865166064"/>
        </g>
        <g class="node-n inside-node">
            <text class="node-name" dominant-baseline="middle" x="193.90625" y="272.5">n</text>
            <path class="tree-path" d="M196.36327127419628 262.80654620591054 L202.85547872580372 237.19345379408944"/>
        </g>
        <g class="node-o outside-node">
            <text class="node-name" dominant-baseline="middle" x="216.71875" y="272.5">o</text>
            <path class="tree-path" d="M214.26172872580372 262.80654620591054 L207.76952127419628 237.19345379408944"/>
        </g>
        <g class="node-k outside-node">
            <text class="node-name" dominant-baseline="middle" x="250.9375" y="227.5">k</text>
            <path class="tree-path" d="M246.41588068353315 218.58064134833936 L232.64661931646685 191.41935865166064"/>
        </g>
        <g class="node-g outside-node">
            <text class="node-name" dominant-baseline="middle" x="319.375" y="182.5">g</text>
            <path class="tree-path" d="M312.2553355154684 175.4778651659414 L280.8696644845316 144.5221348340586"/>
        </g>
    </g>
</svg>
